<?xml version="1.0" encoding="UTF-8" standalone="no"?>
<svg
   xmlns:dc="http://purl.org/dc/elements/1.1/"
   xmlns:cc="http://creativecommons.org/ns#"
   xmlns:rdf="http://www.w3.org/1999/02/22-rdf-syntax-ns#"
   xmlns:svg="http://www.w3.org/2000/svg"
   xmlns="http://www.w3.org/2000/svg"
   viewBox="0 0 566.66669 246.66667"
   height="246.66667"
   width="566.66669"
   xml:space="preserve"
   id="svg2"
   version="1.1"><metadata
     id="metadata8"><rdf:RDF><cc:Work
         rdf:about=""><dc:format>image/svg+xml</dc:format><dc:type
           rdf:resource="http://purl.org/dc/dcmitype/StillImage" /></cc:Work></rdf:RDF></metadata><defs
     id="defs6" /><g
     transform="matrix(1.3333333,0,0,-1.3333333,0,246.66667)"
     id="g10"><g
       transform="scale(0.1)"
       id="g12"><path
         id="path14"
         style="fill:#26428f;fill-opacity:1;fill-rule:evenodd;stroke:none"
         d="m 847.852,238.98 c 251.058,-5.5 478.128,-3.671 681.058,5.551 202.97,10.239 390.58,22.699 562.93,37.578 172.34,14.879 338.12,26.411 497.54,34.77 159.41,8.351 321.52,7.383 486.48,-2.859 164.06,-9.219 339.14,-33.321 525.47,-72.18 186.21,-38.988 392.3,-97.738 618.51,-176.5705 C 3955.74,189.488 3705.98,287.23 3470.59,358.551 3235.27,429.02 3008.75,476.719 2790.94,501.68 2573.2,526.762 2359.18,531.879 2148.83,516.988 1938.52,502.23 1726.21,470.738 1512.19,422.5 1297.19,375.27 1075.78,314.02 847.852,238.98" /><path
         id="path16"
         style="fill:#b0cf33;fill-opacity:1;fill-rule:evenodd;stroke:none"
         d="M 4248.95,90.3516 C 4099.84,218.16 3946.41,335.43 3788.95,441.949 3631.41,548.48 3469.73,639.379 3303.79,714.41 3137.97,789.449 2967.93,843.199 2793.75,875.66 2620.43,908.012 2443.01,913.121 2261.33,890.859 2135.39,874.262 2009.3,844.609 1883.36,801.91 1756.41,759.379 1629.45,710.699 1502.54,655.98 1374.61,601.371 1245.82,547.191 1116.05,493.441 985.43,439.691 853.828,393.32 721.371,354.41 603.629,319.141 485.078,295.039 365.512,282.109 245.078,269.18 123.238,271.48 0,289.059 c 148.199,-35.188 283.09,-52.34 404.488,-51.481 120.434,0 236.723,12.07 348.793,36.172 113.047,25.078 231.719,56.559 355.819,94.57 124.26,37.891 264.1,76.879 419.81,116.758 158.43,40.703 340.54,70.902 546.21,90.313 204.8,19.449 425.78,19.449 663.04,0 237.15,-19.411 483.64,-67.621 739.38,-144.532 255.82,-75.98 512.97,-189.449 771.41,-340.5074" /><path
         id="path18"
         style="fill:#b0cf33;fill-opacity:1;fill-rule:evenodd;stroke:none"
         d="M 4248.95,90.3516 C 4132.19,220 4010.35,345.621 3883.44,466.91 3756.48,587.461 3619.77,693.98 3473.4,786.602 3326.05,880.199 3163.91,950.23 2986.91,996.52 2809.92,1042.89 2612.62,1056.8 2394.8,1038.2 2281.76,1026.17 2159.49,994.219 2027.89,942.34 1895.39,891.41 1756.84,829.73 1612.3,757.5 1467.77,686.172 1320.43,614.301 1170.23,542.07 1020.2,469.77 870.551,406.762 721.371,353.012 853.828,391.91 985,438.281 1114.65,492.031 c 129.76,54.61 258.55,109.34 386.48,163.949 127.82,54.719 255.28,103.399 382.23,145.93 125.94,42.699 252.03,72.352 377.97,88.949 181.68,21.411 359.1,16.289 532.42,-15.199 174.18,-32.461 344.22,-86.211 510.04,-161.25 165.94,-75.031 327.62,-165.93 485.16,-272.461 157.46,-107.5 310.89,-224.648 460,-351.5974" /><path
         id="path20"
         style="fill:#ff6800;fill-opacity:1;fill-rule:evenodd;stroke:none"
         d="m 1135.51,569.879 c -26.84,74.07 -43.56,150.512 -49.96,229.34 -5.63,78.711 0,157.461 16.6,236.291 28.79,129.65 81.56,244.1 158.44,343.24 76.99,100.12 171.48,178.83 283.63,236.29 111.21,57.42 233.48,88.05 366.91,91.76 64.85,0.97 129.22,-5.12 193.21,-18.05 107.5,-23.24 204.8,-63.52 291.87,-120.94 86.21,-57.46 159.41,-127.93 219.57,-211.33 60.27,-82.42 103.79,-173.2 130.74,-272.34 22.15,-2.81 43.99,-5.66 65.24,-8.36 -20.39,122.27 -62.97,235.31 -127.78,339.1 -63.98,103.83 -145.97,191.8 -246.09,264.1 -100.98,72.31 -215.43,122.82 -343.32,151.49 -69.53,13.91 -139.45,20.43 -209.8,19.45 -144.65,-4.57 -277.54,-37.93 -398.95,-100.04 -121.41,-62.11 -223.83,-147.34 -307.23,-255.7 -84.25,-107.5 -141.68,-231.72 -172.3,-372.58 -20.431,-100 -24.528,-199.69 -12.501,-298.83 12.071,-99.141 39.301,-193.629 81.991,-283.508 19.45,10.187 39.42,20.386 59.73,30.617" /><path
         id="path22"
         style="fill:#284490;fill-opacity:1;fill-rule:nonzero;stroke:none"
         d="m 1576.8,175.078 v -17.656 h -87.97 v -56.25 h 83.9 V 83.6719 h -83.9 V 7.42188 h -21.56 V 175.078 Z M 1630.86,7.42188 h -21.5586 v 167.656 h 21.5586 z" /><path
         id="path24"
         style="fill:#284490;fill-opacity:1;fill-rule:nonzero;stroke:none"
         d="m 1775.55,175.078 v -17.656 h -87.97 v -56.25 h 83.9 V 83.6719 h -83.9 V 25.0781 h 89.69 V 7.42188 H 1666.02 V 175.078 Z" /><path
         id="path26"
         style="fill:#284490;fill-opacity:1;fill-rule:nonzero;stroke:none"
         d="M 1831.02,175.078 V 25.0781 h 87.65 V 7.42188 H 1809.45 V 175.078 Z" /><path
         id="path28"
         style="fill:#284490;fill-opacity:1;fill-rule:nonzero;stroke:none"
         d="m 2011.48,25.0781 c 40.94,0 61.41,23.5938 61.41,70.7813 0,41.0196 -20.47,61.5626 -61.41,61.5626 h -41.71 V 25.0781 Z M 1948.2,7.42188 V 175.078 h 67.97 c 52.27,0 78.44,-26.406 78.44,-79.2186 0,-58.9805 -26.17,-88.43752 -78.44,-88.43752 z" /><path
         id="path30"
         style="fill:#284490;fill-opacity:1;fill-rule:nonzero;stroke:none"
         d="M 2180.7,7.42188 V 175.078 h 71.41 c 31.87,0 47.81,-13.437 47.81,-40.308 0,-30.239 -22.26,-48.9106 -66.72,-56.0981 l -4.37,18.2773 c 31.95,5.0818 47.97,17.3908 47.97,36.8788 0,15.512 -8.91,23.281 -26.72,23.281 h -47.81 V 7.42188 Z" /><path
         id="path32"
         style="fill:#284490;fill-opacity:1;fill-rule:nonzero;stroke:none"
         d="M 2326.48,7.42188 V 175.078 h 71.41 c 31.88,0 47.81,-13.437 47.81,-40.308 0,-21.801 -15.58,-37.8911 -46.72,-48.2895 l 57.5,-79.05862 h -28.59 l -53.28,75.30862 v 14.2187 c 31.95,5.0818 47.97,17.3908 47.97,36.8788 0,15.512 -8.91,23.281 -26.72,23.281 h -47.81 V 7.42188 Z" /><path
         id="path34"
         style="fill:#284490;fill-opacity:1;fill-rule:nonzero;stroke:none"
         d="m 2555.23,23.8281 c 40,0 60,22.5821 60,67.8125 0,44.6874 -20,67.0314 -60,67.0314 -40.93,0 -61.4,-22.344 -61.4,-67.0314 0,-45.2304 20.47,-67.8125 61.4,-67.8125 z m -84.21,67.1914 c 0,56.7505 28.04,85.1525 84.21,85.1525 55.2,0 82.82,-28.402 82.82,-85.1525 0,-56.5703 -27.62,-84.84762 -82.82,-84.84762 -56.17,0 -84.21,28.27732 -84.21,84.84762 z" /><path
         id="path36"
         style="fill:#284490;fill-opacity:1;fill-rule:nonzero;stroke:none"
         d="m 2730.55,25.0781 c 40.93,0 61.4,23.5938 61.4,70.7813 0,41.0196 -20.47,61.5626 -61.4,61.5626 h -41.72 V 25.0781 Z M 2667.27,7.42188 V 175.078 h 67.96 c 52.27,0 78.44,-26.406 78.44,-79.2186 0,-58.9805 -26.17,-88.43752 -78.44,-88.43752 z" /><path
         id="path38"
         style="fill:#284490;fill-opacity:1;fill-rule:nonzero;stroke:none"
         d="M 2843.05,72.1094 V 175.078 h 21.56 V 72.1094 c 0,-32.1875 16.01,-48.2813 48.12,-48.2813 31.96,0 47.97,16.0938 47.97,48.2813 V 175.078 h 21.72 V 72.1094 c 0,-43.9883 -23.24,-65.93752 -69.69,-65.93752 -46.48,0 -69.68,21.94922 -69.68,65.93752 z" /><path
         id="path40"
         style="fill:#284490;fill-opacity:1;fill-rule:nonzero;stroke:none"
         d="m 3146.8,13.3594 c -14.5,-4.80862 -30.12,-7.18752 -46.88,-7.18752 -58.67,0 -87.97,29.09762 -87.97,87.34762 0,55.0705 29.3,82.6525 87.97,82.6525 16.76,0 32.38,-2.344 46.88,-7.031 v -18.75 c -14.5,5.507 -29.34,8.281 -44.53,8.281 -45.75,0 -68.6,-21.723 -68.6,-65.1525 0,-46.4882 22.85,-69.6914 68.6,-69.6914 15.19,0 30.03,2.7305 44.53,8.2813 z" /><path
         id="path42"
         style="fill:#284490;fill-opacity:1;fill-rule:nonzero;stroke:none"
         d="M 3289.61,175.078 V 157.422 H 3236.8 V 7.42188 h -21.57 V 157.422 h -52.81 v 17.656 z" /><path
         id="path44"
         style="fill:#284490;fill-opacity:1;fill-rule:nonzero;stroke:none"
         d="m 3309.45,13.3594 v 19.8398 c 17.5,-6.25 36.45,-9.3711 56.88,-9.3711 28.83,0 43.28,10.5508 43.28,31.7227 0,17.8906 -10.63,26.8711 -31.88,26.8711 h -23.9 c -35.12,0 -52.66,15.2383 -52.66,45.7771 0,31.961 22.42,47.973 67.35,47.973 19.57,0 37.73,-2.344 54.53,-7.031 v -19.84 c -16.8,6.25 -34.96,9.371 -54.53,9.371 -30.43,0 -45.63,-10.152 -45.63,-30.473 0,-18.039 10.31,-27.027 30.94,-27.027 h 23.9 c 35.71,0 53.6,-15.2306 53.6,-45.6212 0,-32.9297 -21.68,-49.37892 -65,-49.37892 -20.43,0 -39.38,2.3789 -56.88,7.18752 z" /><path
         id="path46"
         style="fill:#284490;fill-opacity:1;fill-rule:nonzero;stroke:none"
         d="m 184.059,1192.62 c 0,52.18 19.921,95 59.851,128.43 40,33.52 86.399,50.32 139.211,50.32 14.891,0 28.91,-0.86 42.039,-2.5 13.199,-1.68 24.059,-3.56 32.5,-5.63 8.512,-1.99 20.699,-5.23 36.559,-9.69 15.941,-4.37 30,-7.93 42.191,-10.62 8.121,-35.86 12.18,-84.22 12.18,-145.16 0,-4.8 -3.391,-7.18 -10.149,-7.18 -16.25,0 -25.082,3.36 -26.41,10.15 -3.359,29.77 -17.73,58.75 -43.121,86.88 -25.43,28.12 -56.41,42.18 -92.969,42.18 -40.632,0 -69.222,-10.15 -85.781,-30.46 -16.57,-20.32 -24.851,-45.39 -24.851,-75.16 0,-12.93 2.351,-25.31 7.031,-37.19 4.769,-11.79 9.539,-21.56 14.219,-29.37 4.769,-7.82 13.441,-16.84 25.941,-27.03 12.5,-10.12 21.602,-17.19 27.34,-21.25 5.82,-4.07 17.351,-11.53 34.539,-22.35 17.262,-10.86 28.32,-17.61 33.121,-20.31 3.32,-1.99 15.16,-9.3 35.469,-21.88 20.312,-12.5 34.14,-21.32 41.562,-26.4 7.5,-5 19.219,-14.14 35.16,-27.349 15.93,-13.242 27.418,-24.961 34.528,-35.153 7.07,-10.117 13.832,-22.777 20.312,-37.968 6.449,-15.231 9.688,-30.942 9.688,-47.192 0,-54.179 -21.207,-98.707 -63.598,-133.59 -42.301,-34.918 -91.871,-52.347 -148.742,-52.347 -16.258,0 -33.559,1.219 -51.879,3.597 -18.238,2.301 -33.441,4.653 -45.621,7.032 -12.188,2.379 -27.617,5.781 -46.258,10.16 -18.551,4.449 -31.562,7.379 -39.062,8.75 -16.868,83.199 -25.309,137.031 -25.309,161.398 0,4.063 5.391,6.102 16.25,6.102 12.191,0 20.621,-3.051 25.309,-9.07 23.011,-97.5 79.222,-146.25 168.601,-146.25 33.82,0 62.57,10.16 86.25,30.468 23.75,20.313 35.621,49.063 35.621,86.25 0,13.524 -2.031,26.024 -6.09,37.5 -4.07,11.563 -8.281,21.024 -12.66,28.442 -4.371,7.5 -12.191,15.468 -23.441,23.91 -11.168,8.512 -19.801,14.84 -25.93,18.898 -6.058,4.063 -17.191,10.473 -33.441,19.223 -16.25,8.828 -27.418,14.918 -33.438,18.277 -19.691,11.562 -33.441,19.692 -41.25,24.382 -7.73,4.76 -20.582,13.04 -38.59,24.84 -17.929,11.88 -30.941,22.38 -39.062,31.56 -8.129,9.14 -17.617,20.32 -28.438,33.44 -10.863,13.2 -18.441,27.27 -22.82,42.19 -4.371,14.88 -6.562,30.47 -6.562,46.72 z m 555.472,33.59 c 0,41.95 -2.34,72.07 -7.031,90.31 -2.109,5.39 -11.801,10.32 -29.059,14.69 -17.191,4.45 -30.242,6.72 -39.062,6.72 -2.738,0 -4.07,4.37 -4.07,13.12 0,8.13 1.332,13.52 4.07,16.25 77.891,-3.35 118.512,-5 121.871,-5 10.82,0 50.078,1.65 117.809,5 1.332,-4.06 2.031,-9.14 2.031,-15.15 0,-9.49 -1.36,-14.22 -4.059,-14.22 -6.801,0 -18.98,-2.42 -36.562,-7.19 -17.617,-4.69 -27.11,-9.45 -28.438,-14.22 -6.051,-23.67 -9.062,-55.11 -9.062,-94.37 V 836.211 c 0,-39.301 3.011,-70.781 9.062,-94.531 1.328,-4.692 10.821,-9.301 28.438,-13.75 17.582,-4.379 29.761,-6.559 36.562,-6.559 2.699,0 4.059,-5.082 4.059,-15.16 0,-5.43 -0.699,-10.231 -2.031,-14.371 -67.731,3.43 -106.989,5.148 -117.809,5.148 -3.359,0 -43.98,-1.718 -121.871,-5.148 -2.738,2.808 -4.07,7.89 -4.07,15.308 0,9.454 1.332,14.223 4.07,14.223 8.82,0 21.871,2.027 39.062,6.09 17.258,4.059 26.95,8.789 29.059,14.219 4.691,18.32 7.031,48.48 7.031,90.468 z" /><path
         id="path48"
         style="fill:#284490;fill-opacity:1;fill-rule:nonzero;stroke:none"
         d="m 1549.06,1365.27 203.13,-536.25 c 12.19,-31.79 21.95,-56.168 29.37,-73.122 4.06,-10.117 14.53,-18.398 31.41,-24.847 16.95,-6.481 29.53,-9.68 37.65,-9.68 2.7,0 4.07,-6.41 4.07,-19.223 0,-2.738 -0.71,-6.168 -2.03,-10.308 -67.74,3.43 -104.96,5.148 -111.72,5.148 -0.63,0 -39.92,-1.718 -117.82,-5.148 -2.73,2.808 -3.9,8.43 -3.59,16.871 0.39,8.437 1.95,12.66 4.69,12.66 8.12,0 18.28,1.641 30.47,5 12.19,3.43 19.26,7.848 21.25,13.277 1.33,5.391 2.03,10.821 2.03,16.25 0,8.832 -1.21,19.141 -3.59,30.942 -2.31,11.871 -4.5,21.172 -6.57,27.961 l -4.06,11.25 -41.56,114.687 c -2.11,2.703 -4.14,4.063 -6.1,4.063 -26.48,2.078 -52.18,3.129 -77.18,3.129 -35.24,0 -78.25,-1.719 -129.07,-5.16 l -5,-2.969 -43.75,-111.711 c -11.48,-33.871 -17.18,-57.27 -17.18,-70.16 0,-9.489 2.69,-16.25 8.12,-20.309 6.02,-4.691 15.82,-8.601 29.38,-11.723 13.51,-3.046 23.36,-4.527 29.53,-4.527 1.95,0 3.12,-4.07 3.44,-12.191 0.39,-8.129 -0.08,-13.91 -1.41,-17.34 -67.74,3.43 -102.62,5.148 -104.69,5.148 -13.55,0 -25.43,-0.386 -35.62,-1.09 -10.12,-0.628 -21.41,-1.25 -33.91,-1.878 -12.5,-0.7 -24.53,-1.438 -36.09,-2.18 -2.74,2.808 -4.07,7.89 -4.07,15.308 0,9.454 1.33,14.223 4.07,14.223 8.12,0 18.59,1.641 31.4,5 12.89,3.43 21.76,8.199 26.56,14.367 14.15,18.211 30.04,50.043 47.66,95.473 L 1485,1290.12 c 1.33,3.43 3.2,8.83 5.62,16.25 2.39,7.5 4.26,13.04 5.63,16.72 1.33,3.75 3.36,8.47 6.09,14.21 2.7,5.82 5.04,10.08 7.04,12.82 2.07,2.69 4.6,5.7 7.65,9.06 3.01,3.44 6.41,5.82 10.16,7.19 3.75,1.33 7.97,2.03 12.65,2.03 z M 1431.25,998.711 c 35.2,-1.371 59.22,-2.031 72.03,-2.031 29.77,0 60.63,0.98 92.5,2.968 l 2.97,5.152 -82.19,224.38 -87.34,-226.41 c 0,-2.73 0.66,-4.059 2.03,-4.059 z" /><path
         id="path50"
         style="fill:#284490;fill-opacity:1;fill-rule:nonzero;stroke:none"
         d="m 1917.66,1021.99 c 0,96.13 32.11,178.6 96.4,247.35 64.38,68.75 143.28,103.12 236.72,103.12 48.13,0 128.36,-15.27 240.78,-45.78 2.7,-77.19 4.06,-119.18 4.06,-125.94 0,-10.12 -7.14,-15.15 -21.4,-15.15 -6.8,0 -11.17,1.64 -13.13,5 -18.36,92.81 -87.42,139.21 -207.18,139.21 -67.74,0 -124.3,-28.82 -169.69,-86.4 -45.31,-57.5 -67.97,-126.88 -67.97,-208.13 0,-75.231 24.84,-144.489 74.53,-207.809 49.77,-63.242 112.27,-94.84 187.5,-94.84 59.57,0 103.6,7.418 132.03,22.34 4.69,1.949 7.03,7.027 7.03,15.16 l -0.93,83.277 v 7.192 c 0,43.941 -2.74,73.039 -8.13,87.34 -2.73,6.761 -13.75,12.191 -33.12,16.25 -19.3,4.058 -34.34,6.09 -45.16,6.09 -2.73,0 -4.06,4.218 -4.06,12.66 0,8.441 1.33,13.98 4.06,16.718 86.64,-3.359 131.02,-5 133.12,-5 5.4,0 41.96,1.641 109.69,5 1.33,-4.058 2.03,-8.828 2.03,-14.218 0,-10.121 -1.36,-15.16 -4.06,-15.16 -4.06,0 -13.4,-2.258 -27.97,-6.719 -14.61,-4.371 -24.92,-8.242 -30.93,-11.563 -6.8,-4.797 -10.16,-27.5 -10.16,-68.117 0,-14.18 0.47,-29.609 1.4,-46.25 1.02,-16.57 1.57,-25.551 1.57,-26.883 0,-12.187 2.34,-24.058 7.03,-35.617 4.76,-11.492 7.19,-18.211 7.19,-20.16 0,-5.43 -8.44,-11.52 -25.32,-18.281 -1.36,-0.739 -7.97,-3.282 -19.84,-7.66 -11.87,-4.372 -19.53,-7.258 -22.97,-8.59 -3.36,-1.371 -10.94,-3.91 -22.81,-7.66 -11.8,-3.75 -21.25,-6.321 -28.44,-7.649 -7.11,-1.371 -17.26,-3.402 -30.47,-6.101 -13.12,-2.731 -25.62,-4.571 -37.5,-5.622 -11.87,-1.019 -25.78,-2.027 -41.72,-2.968 -15.86,-1.02 -32.57,-1.559 -50.15,-1.559 -89.38,0 -165.43,32.809 -228.13,98.43 -62.61,65.711 -93.9,143.949 -93.9,234.689 z" /><path
         id="path52"
         style="fill:#284490;fill-opacity:1;fill-rule:nonzero;stroke:none"
         d="m 2891.72,1320.59 c -30.55,0 -54.22,-2.35 -71.1,-7.04 -2.73,-0.74 -4.96,-3.28 -6.71,-7.65 -1.68,-4.38 -3.05,-14.53 -4.07,-30.47 -0.93,-15.94 -1.4,-40.47 -1.4,-73.59 v -122.97 c 0,-19.61 29.41,-29.38 88.28,-29.38 h 25.47 c 23.63,0 48.16,11.8 73.59,35.47 25.39,23.75 38.13,55.24 38.13,94.53 0,94.06 -47.43,141.1 -142.19,141.1 z m 16.25,44.68 c 23.01,0 46.33,-3.39 70,-10.15 23.75,-6.8 47.11,-16.96 70.15,-30.47 23.01,-13.56 41.96,-32.89 56.88,-57.97 14.88,-25 22.34,-54.06 22.34,-87.19 0,-28.44 -10.7,-58.24 -32.03,-89.37 -21.36,-31.17 -50.31,-55.24 -86.87,-72.19 -6.8,-2.73 -8.83,-6.09 -6.1,-10.16 33.83,-71.051 72.82,-130.622 116.88,-178.75 65,-71.051 117.81,-106.559 158.44,-106.559 1.95,-4.063 2.96,-8.832 2.96,-14.223 0,-6.168 -1.01,-11.25 -2.96,-15.308 -7.5,-2.071 -16.68,-3.129 -27.5,-3.129 -94.81,0 -177.04,48.789 -246.72,146.41 -10.86,14.879 -23.24,32.66 -37.19,53.277 -13.87,20.633 -24.02,35.512 -30.47,44.692 -6.37,9.14 -13.83,19.14 -22.34,30 -8.44,10.82 -15.9,18.941 -22.35,24.371 -6.36,5.398 -13.28,9.769 -20.78,13.129 -7.42,2.7 -19.92,4.06 -37.5,4.06 -5.43,0 -9.49,-0.15 -12.19,-0.47 -2.73,-0.31 -5.42,-1.83 -8.12,-4.53 -2.73,-2.728 -4.06,-6.791 -4.06,-12.189 V 839.18 c 0,-45.309 2.69,-74.77 8.12,-88.282 3.32,-8.867 15.32,-16.019 35.94,-21.41 20.7,-5.429 35.47,-8.117 44.22,-8.117 2.69,0 4.06,-4.769 4.06,-14.223 0,-6.058 -0.7,-11.168 -2.03,-15.308 -67.73,3.43 -111.72,5.148 -132.03,5.148 l -123.91,-5.148 c -1.99,2.109 -2.97,8.199 -2.97,18.43 0,8.75 0.98,13.128 2.97,13.128 9.46,0 22.66,2.032 39.53,6.09 16.96,4.063 27.19,9.141 30.63,15.313 4.69,8.129 7.03,39.929 7.03,95.469 v 383.91 c 0,39.88 -2.34,68.98 -7.03,87.34 -2.11,5.39 -12.11,10.47 -30,15.16 -17.93,4.77 -31.33,7.19 -40.16,7.19 -2.73,0 -4.06,4.06 -4.06,12.18 0,8.75 1.33,14.46 4.06,17.19 l 121.88,-2.03 c 20.31,0 44.29,0.67 72.03,2.03 27.81,1.33 51.56,2.03 71.25,2.03 z" /><path
         id="path54"
         style="fill:#284490;fill-opacity:1;fill-rule:nonzero;stroke:none"
         d="m 3388.28,1226.21 c 0,41.95 -2.34,72.07 -7.03,90.31 -2.11,5.39 -11.8,10.32 -29.06,14.69 -17.19,4.45 -30.24,6.72 -39.07,6.72 -2.73,0 -4.06,4.37 -4.06,13.12 0,8.13 1.33,13.52 4.06,16.25 77.9,-3.35 118.52,-5 121.88,-5 10.82,0 50.08,1.65 117.81,5 1.33,-4.06 2.03,-9.14 2.03,-15.15 0,-9.49 -1.36,-14.22 -4.06,-14.22 -6.8,0 -18.98,-2.42 -36.56,-7.19 -17.62,-4.69 -27.11,-9.45 -28.44,-14.22 -6.05,-23.67 -9.06,-55.11 -9.06,-94.37 V 836.211 c 0,-39.301 3.01,-70.781 9.06,-94.531 1.33,-4.692 10.82,-9.301 28.44,-13.75 17.58,-4.379 29.76,-6.559 36.56,-6.559 2.7,0 4.06,-5.082 4.06,-15.16 0,-5.43 -0.7,-10.231 -2.03,-14.371 -67.73,3.43 -106.99,5.148 -117.81,5.148 -3.36,0 -43.98,-1.718 -121.88,-5.148 -2.73,2.808 -4.06,7.89 -4.06,15.308 0,9.454 1.33,14.223 4.06,14.223 8.83,0 21.88,2.027 39.07,6.09 17.26,4.059 26.95,8.789 29.06,14.219 4.69,18.32 7.03,48.48 7.03,90.468 z" /></g></g></svg>